<?xml version="1.0" encoding="UTF-8"?>
<svg xmlns="http://www.w3.org/2000/svg" width="1920" height="1080" viewBox="0 0 1920 1080">
  <defs>
    <!-- Dotted pattern -->
    <pattern id="dots" width="20" height="20" patternUnits="userSpaceOnUse">
      <circle cx="1.5" cy="1.5" r="1.2" fill="#ffffff" fill-opacity="0.1" />
    </pattern>

    <!-- Wave path for clipping stripes -->
    <path id="wavePath" d="M0,300 C400,100 800,500 1200,300 C1600,100 1920,400 1920,400 L1920,1080 L0,1080 Z" />
  </defs>

  <!-- Background solid color -->
  <rect width="100%" height="100%" fill="#2D3E50" />

  <!-- Large solid dark pastel blobs (no blur) -->
  <ellipse cx="420" cy="260" rx="420" ry="240" fill="#7A5C61" />
  <ellipse cx="1550" cy="320" rx="380" ry="200" fill="#5C5678" />
  <ellipse cx="1200" cy="820" rx="520" ry="300" fill="#4C6F64" />
  <ellipse cx="300" cy="820" rx="360" ry="200" fill="#6C5F44" />

  <!-- Diagonal stripes clipped by wave (solid color) -->
  <g clip-path="url(#waveClip)">
    <defs>
      <clipPath id="waveClip">
        <use href="#wavePath" />
      </clipPath>
    </defs>
    <g opacity="0.1">
      <rect transform="skewX(-20)" x="-960" y="200" width="3200" height="240" fill="#ffffff" />
      <rect transform="skewX(-20)" x="-960" y="260" width="3200" height="240" fill="#ffffff" opacity="0.6" />
    </g>
  </g>

  <!-- Geometric elements -->
  <g opacity="0.85">
    <circle cx="1620" cy="900" r="70" fill="#7A5C61" />
    <circle cx="150" cy="120" r="45" fill="#5C5678" />
    <rect x="1240" y="120" width="140" height="140" rx="24" ry="24" fill="#4C6F64" />
    <rect x="60" y="860" width="220" height="120" rx="18" ry="18" fill="#6C5F44" />
  </g>

  <!-- Thin outline shapes -->
  <g stroke="#ffffff" stroke-opacity="0.3" fill="none" stroke-width="2">
    <ellipse cx="960" cy="200" rx="280" ry="60" />
    <ellipse cx="400" cy="600" rx="180" ry="48" />
  </g>

  <!-- Dotted overlay -->
  <rect width="100%" height="100%" fill="url(#dots)" opacity="0.08" />

  <!-- Small accent icons -->
  <g opacity="0.8">
    <polygon points="1700,180 1740,120 1660,120" fill="#5C5678" />
    <polygon points="220,520 260,460 180,460" fill="#4C6F64" />
    <path d="M420 980 L520 900" stroke="#ffffff" stroke-opacity="0.3" stroke-width="3" stroke-linecap="round" />
    <path d="M500 980 L600 920" stroke="#ffffff" stroke-opacity="0.2" stroke-width="2" stroke-linecap="round" />
  </g>

  <!-- Centered focal area -->
  <rect x="240" y="200" width="1440" height="680" rx="28" ry="28" fill="none" stroke="#ffffff" stroke-opacity="0.05" />

  <!-- Accessibility -->
  <title>Dark pastel background 1920x1080 (solid colors, LVGL compatible, no blur)</title>
  <desc>Background with only solid colors and simple shapes, no blur, suitable for LVGL.</desc>
</svg>